<?xml version="1.0" encoding="UTF-8" standalone="no"?>
<!-- Created with Inkscape (http://www.inkscape.org/) -->
<svg
   xmlns:svg="http://www.w3.org/2000/svg"
   xmlns="http://www.w3.org/2000/svg"
   version="1.0"
   width="548.24609"
   height="461.49802"
   id="svg2">
  <defs
     id="defs5" />
  <path
     d="M 132.58099,460.83688 C 97.92637,456.06634 68.11426,441.42047 44.03773,417.33799 C 22.63371,395.92868 8.8649299,370.53227 2.3972299,340.53241 C -0.60901006,326.58826 -0.82556006,298.16472 1.9615199,283.344 C 4.0899899,272.02553 10.64835,251.64309 17.17182,236.07258 C 44.33492,171.23844 105.95575,106.56509 218.59148,24.675195 C 246.28912,4.5380917 254.02343,0.91792573 271.08099,0.10662973 C 289.37219,-0.76334127 299.58117,3.4162107 326.58099,22.828318 C 439.21454,103.80864 503.30334,170.94651 530.90197,236.87 C 544.78527,270.03235 550.05761,296.96822 547.70546,322.7173 C 541.45758,391.1131 493.76352,444.609 426.18505,459.02034 C 411.30427,462.19371 384.51773,462.20551 368.81814,459.04559 C 339.73226,453.19138 313.96263,439.73403 292.17792,419.02275 C 284.86987,412.07481 277.6579,404.24481 275.51293,400.92966 L 273.9508,398.51532 L 269.37687,404.42966 C 263.45914,412.08162 250.8305,424.43012 242.58099,430.63112 C 224.06992,444.54555 203.16071,453.97654 180.08099,458.82145 C 168.68289,461.21414 143.18168,462.29616 132.58099,460.83688 z"
     id="path2406"
     style="fill:#ff0000" />
</svg>
